<mxfile host="app.diagrams.net" agent="Mozilla/5.0 (Windows NT 10.0; Win64; x64) AppleWebKit/537.36 (KHTML, like Gecko) Chrome/134.0.0.0 Safari/537.36" version="26.2.7">
  <diagram name="Page-1" id="ClKewfaFQdFFM47pFRAS">
    <mxGraphModel dx="1190" dy="619" grid="1" gridSize="10" guides="1" tooltips="1" connect="1" arrows="1" fold="1" page="1" pageScale="1" pageWidth="827" pageHeight="1169" math="0" shadow="0">
      <root>
        <mxCell id="0" />
        <mxCell id="1" parent="0" />
        <mxCell id="TKMiJfSwWeMEldTkSYpw-5" value="" style="edgeStyle=orthogonalEdgeStyle;rounded=0;orthogonalLoop=1;jettySize=auto;html=1;" edge="1" parent="1" source="TKMiJfSwWeMEldTkSYpw-1" target="TKMiJfSwWeMEldTkSYpw-4">
          <mxGeometry relative="1" as="geometry" />
        </mxCell>
        <mxCell id="TKMiJfSwWeMEldTkSYpw-1" value="Audio" style="rounded=1;whiteSpace=wrap;html=1;" vertex="1" parent="1">
          <mxGeometry x="10" y="490" width="120" height="60" as="geometry" />
        </mxCell>
        <mxCell id="TKMiJfSwWeMEldTkSYpw-10" style="edgeStyle=orthogonalEdgeStyle;rounded=0;orthogonalLoop=1;jettySize=auto;html=1;" edge="1" parent="1" source="TKMiJfSwWeMEldTkSYpw-2">
          <mxGeometry relative="1" as="geometry">
            <mxPoint x="210" y="369.9999999999999" as="targetPoint" />
          </mxGeometry>
        </mxCell>
        <mxCell id="TKMiJfSwWeMEldTkSYpw-2" value="Clinical Information&lt;div&gt;(Symptoms, age, conditions,...)&lt;/div&gt;" style="rounded=1;whiteSpace=wrap;html=1;" vertex="1" parent="1">
          <mxGeometry x="10" y="340" width="120" height="60" as="geometry" />
        </mxCell>
        <mxCell id="TKMiJfSwWeMEldTkSYpw-9" style="edgeStyle=orthogonalEdgeStyle;rounded=0;orthogonalLoop=1;jettySize=auto;html=1;exitX=1;exitY=0.5;exitDx=0;exitDy=0;" edge="1" parent="1" source="TKMiJfSwWeMEldTkSYpw-3">
          <mxGeometry relative="1" as="geometry">
            <mxPoint x="210" y="289.72413793103453" as="targetPoint" />
          </mxGeometry>
        </mxCell>
        <mxCell id="TKMiJfSwWeMEldTkSYpw-3" value="Text (Prompt)" style="rounded=1;whiteSpace=wrap;html=1;" vertex="1" parent="1">
          <mxGeometry x="10" y="260" width="120" height="60" as="geometry" />
        </mxCell>
        <mxCell id="TKMiJfSwWeMEldTkSYpw-4" value="Load Data From Folder" style="rounded=1;whiteSpace=wrap;html=1;" vertex="1" parent="1">
          <mxGeometry x="160" y="490" width="120" height="60" as="geometry" />
        </mxCell>
        <mxCell id="TKMiJfSwWeMEldTkSYpw-24" style="edgeStyle=orthogonalEdgeStyle;rounded=0;orthogonalLoop=1;jettySize=auto;html=1;" edge="1" parent="1" source="TKMiJfSwWeMEldTkSYpw-11">
          <mxGeometry relative="1" as="geometry">
            <mxPoint x="440" y="280" as="targetPoint" />
          </mxGeometry>
        </mxCell>
        <mxCell id="TKMiJfSwWeMEldTkSYpw-26" style="edgeStyle=orthogonalEdgeStyle;rounded=0;orthogonalLoop=1;jettySize=auto;html=1;" edge="1" parent="1" source="TKMiJfSwWeMEldTkSYpw-11">
          <mxGeometry relative="1" as="geometry">
            <mxPoint x="440" y="380" as="targetPoint" />
          </mxGeometry>
        </mxCell>
        <mxCell id="TKMiJfSwWeMEldTkSYpw-11" value="Text Embedding" style="rounded=1;whiteSpace=wrap;html=1;" vertex="1" parent="1">
          <mxGeometry x="210" y="260" width="130" height="140" as="geometry" />
        </mxCell>
        <mxCell id="TKMiJfSwWeMEldTkSYpw-14" value="" style="edgeStyle=orthogonalEdgeStyle;rounded=0;orthogonalLoop=1;jettySize=auto;html=1;" edge="1" parent="1" source="TKMiJfSwWeMEldTkSYpw-4" target="TKMiJfSwWeMEldTkSYpw-13">
          <mxGeometry relative="1" as="geometry">
            <mxPoint x="400" y="520" as="targetPoint" />
            <mxPoint x="330" y="520" as="sourcePoint" />
          </mxGeometry>
        </mxCell>
        <mxCell id="TKMiJfSwWeMEldTkSYpw-15" style="edgeStyle=orthogonalEdgeStyle;rounded=0;orthogonalLoop=1;jettySize=auto;html=1;entryX=0;entryY=0.5;entryDx=0;entryDy=0;" edge="1" parent="1" source="TKMiJfSwWeMEldTkSYpw-13" target="TKMiJfSwWeMEldTkSYpw-16">
          <mxGeometry relative="1" as="geometry">
            <mxPoint x="470" y="520" as="targetPoint" />
          </mxGeometry>
        </mxCell>
        <mxCell id="TKMiJfSwWeMEldTkSYpw-13" value="Load Audio To Spectrogram" style="rounded=1;whiteSpace=wrap;html=1;" vertex="1" parent="1">
          <mxGeometry x="310" y="490" width="120" height="60" as="geometry" />
        </mxCell>
        <mxCell id="TKMiJfSwWeMEldTkSYpw-23" style="edgeStyle=orthogonalEdgeStyle;rounded=0;orthogonalLoop=1;jettySize=auto;html=1;entryX=0.5;entryY=1;entryDx=0;entryDy=0;" edge="1" parent="1" source="TKMiJfSwWeMEldTkSYpw-16" target="TKMiJfSwWeMEldTkSYpw-41">
          <mxGeometry relative="1" as="geometry">
            <mxPoint x="680" y="450" as="targetPoint" />
          </mxGeometry>
        </mxCell>
        <mxCell id="TKMiJfSwWeMEldTkSYpw-16" value="Audio Encoding" style="rounded=1;whiteSpace=wrap;html=1;" vertex="1" parent="1">
          <mxGeometry x="460" y="490" width="120" height="60" as="geometry" />
        </mxCell>
        <mxCell id="TKMiJfSwWeMEldTkSYpw-18" value="" style="endArrow=none;dashed=1;html=1;dashPattern=1 3;strokeWidth=2;rounded=0;" edge="1" parent="1">
          <mxGeometry width="50" height="50" relative="1" as="geometry">
            <mxPoint x="140" y="600" as="sourcePoint" />
            <mxPoint x="140" y="420" as="targetPoint" />
          </mxGeometry>
        </mxCell>
        <mxCell id="TKMiJfSwWeMEldTkSYpw-19" value="" style="endArrow=none;dashed=1;html=1;dashPattern=1 3;strokeWidth=2;rounded=0;" edge="1" parent="1">
          <mxGeometry width="50" height="50" relative="1" as="geometry">
            <mxPoint x="610" y="600" as="sourcePoint" />
            <mxPoint x="610" y="420" as="targetPoint" />
          </mxGeometry>
        </mxCell>
        <mxCell id="TKMiJfSwWeMEldTkSYpw-20" value="" style="endArrow=none;dashed=1;html=1;dashPattern=1 3;strokeWidth=2;rounded=0;" edge="1" parent="1">
          <mxGeometry width="50" height="50" relative="1" as="geometry">
            <mxPoint x="140" y="420" as="sourcePoint" />
            <mxPoint x="610" y="420" as="targetPoint" />
          </mxGeometry>
        </mxCell>
        <mxCell id="TKMiJfSwWeMEldTkSYpw-21" value="" style="endArrow=none;dashed=1;html=1;dashPattern=1 3;strokeWidth=2;rounded=0;" edge="1" parent="1">
          <mxGeometry width="50" height="50" relative="1" as="geometry">
            <mxPoint x="140" y="600" as="sourcePoint" />
            <mxPoint x="610" y="600" as="targetPoint" />
          </mxGeometry>
        </mxCell>
        <mxCell id="TKMiJfSwWeMEldTkSYpw-22" value="Audio Preprocessing" style="text;html=1;align=center;verticalAlign=middle;whiteSpace=wrap;rounded=0;" vertex="1" parent="1">
          <mxGeometry x="280" y="570" width="190" height="30" as="geometry" />
        </mxCell>
        <mxCell id="TKMiJfSwWeMEldTkSYpw-27" value="" style="rounded=0;whiteSpace=wrap;html=1;" vertex="1" parent="1">
          <mxGeometry x="440" y="260" width="30" height="40" as="geometry" />
        </mxCell>
        <mxCell id="TKMiJfSwWeMEldTkSYpw-28" value="" style="rounded=0;whiteSpace=wrap;html=1;" vertex="1" parent="1">
          <mxGeometry x="470" y="260" width="30" height="40" as="geometry" />
        </mxCell>
        <mxCell id="TKMiJfSwWeMEldTkSYpw-29" value="" style="rounded=0;whiteSpace=wrap;html=1;" vertex="1" parent="1">
          <mxGeometry x="530" y="260" width="30" height="40" as="geometry" />
        </mxCell>
        <mxCell id="TKMiJfSwWeMEldTkSYpw-30" value="" style="rounded=0;whiteSpace=wrap;html=1;" vertex="1" parent="1">
          <mxGeometry x="500" y="260" width="30" height="40" as="geometry" />
        </mxCell>
        <mxCell id="TKMiJfSwWeMEldTkSYpw-53" style="edgeStyle=orthogonalEdgeStyle;rounded=0;orthogonalLoop=1;jettySize=auto;html=1;entryX=0.083;entryY=0.221;entryDx=0;entryDy=0;entryPerimeter=0;" edge="1" parent="1" source="TKMiJfSwWeMEldTkSYpw-31" target="TKMiJfSwWeMEldTkSYpw-55">
          <mxGeometry relative="1" as="geometry">
            <mxPoint x="690" y="310" as="targetPoint" />
            <Array as="points">
              <mxPoint x="640" y="280" />
              <mxPoint x="640" y="330" />
              <mxPoint x="697" y="330" />
            </Array>
          </mxGeometry>
        </mxCell>
        <mxCell id="TKMiJfSwWeMEldTkSYpw-31" value="" style="rounded=0;whiteSpace=wrap;html=1;" vertex="1" parent="1">
          <mxGeometry x="560" y="260" width="30" height="40" as="geometry" />
        </mxCell>
        <mxCell id="TKMiJfSwWeMEldTkSYpw-33" value="" style="rounded=0;whiteSpace=wrap;html=1;" vertex="1" parent="1">
          <mxGeometry x="440" y="360" width="30" height="40" as="geometry" />
        </mxCell>
        <mxCell id="TKMiJfSwWeMEldTkSYpw-34" value="" style="rounded=0;whiteSpace=wrap;html=1;" vertex="1" parent="1">
          <mxGeometry x="470" y="360" width="30" height="40" as="geometry" />
        </mxCell>
        <mxCell id="TKMiJfSwWeMEldTkSYpw-35" value="" style="rounded=0;whiteSpace=wrap;html=1;" vertex="1" parent="1">
          <mxGeometry x="530" y="360" width="30" height="40" as="geometry" />
        </mxCell>
        <mxCell id="TKMiJfSwWeMEldTkSYpw-36" value="" style="rounded=0;whiteSpace=wrap;html=1;" vertex="1" parent="1">
          <mxGeometry x="500" y="360" width="30" height="40" as="geometry" />
        </mxCell>
        <mxCell id="TKMiJfSwWeMEldTkSYpw-54" style="edgeStyle=orthogonalEdgeStyle;rounded=0;orthogonalLoop=1;jettySize=auto;html=1;" edge="1" parent="1" source="TKMiJfSwWeMEldTkSYpw-37" target="TKMiJfSwWeMEldTkSYpw-55">
          <mxGeometry relative="1" as="geometry">
            <mxPoint x="700" y="350" as="targetPoint" />
            <Array as="points">
              <mxPoint x="640" y="380" />
              <mxPoint x="640" y="330" />
            </Array>
          </mxGeometry>
        </mxCell>
        <mxCell id="TKMiJfSwWeMEldTkSYpw-37" value="" style="rounded=0;whiteSpace=wrap;html=1;" vertex="1" parent="1">
          <mxGeometry x="560" y="360" width="30" height="40" as="geometry" />
        </mxCell>
        <mxCell id="TKMiJfSwWeMEldTkSYpw-38" value="" style="rounded=0;whiteSpace=wrap;html=1;" vertex="1" parent="1">
          <mxGeometry x="630" y="430" width="30" height="40" as="geometry" />
        </mxCell>
        <mxCell id="TKMiJfSwWeMEldTkSYpw-39" value="" style="rounded=0;whiteSpace=wrap;html=1;" vertex="1" parent="1">
          <mxGeometry x="660" y="430" width="30" height="40" as="geometry" />
        </mxCell>
        <mxCell id="TKMiJfSwWeMEldTkSYpw-40" value="" style="rounded=0;whiteSpace=wrap;html=1;" vertex="1" parent="1">
          <mxGeometry x="720" y="430" width="30" height="40" as="geometry" />
        </mxCell>
        <mxCell id="TKMiJfSwWeMEldTkSYpw-56" style="edgeStyle=orthogonalEdgeStyle;rounded=0;orthogonalLoop=1;jettySize=auto;html=1;" edge="1" parent="1" source="TKMiJfSwWeMEldTkSYpw-41" target="TKMiJfSwWeMEldTkSYpw-55">
          <mxGeometry relative="1" as="geometry">
            <mxPoint x="705" y="360" as="targetPoint" />
          </mxGeometry>
        </mxCell>
        <mxCell id="TKMiJfSwWeMEldTkSYpw-41" value="" style="rounded=0;whiteSpace=wrap;html=1;" vertex="1" parent="1">
          <mxGeometry x="690" y="430" width="30" height="40" as="geometry" />
        </mxCell>
        <mxCell id="TKMiJfSwWeMEldTkSYpw-42" value="" style="rounded=0;whiteSpace=wrap;html=1;" vertex="1" parent="1">
          <mxGeometry x="750" y="430" width="30" height="40" as="geometry" />
        </mxCell>
        <mxCell id="TKMiJfSwWeMEldTkSYpw-57" style="edgeStyle=orthogonalEdgeStyle;rounded=0;orthogonalLoop=1;jettySize=auto;html=1;" edge="1" parent="1" source="TKMiJfSwWeMEldTkSYpw-55">
          <mxGeometry relative="1" as="geometry">
            <mxPoint x="830" y="330" as="targetPoint" />
          </mxGeometry>
        </mxCell>
        <mxCell id="TKMiJfSwWeMEldTkSYpw-55" value="" style="ellipse;whiteSpace=wrap;html=1;aspect=fixed;" vertex="1" parent="1">
          <mxGeometry x="680" y="305" width="50" height="50" as="geometry" />
        </mxCell>
        <mxCell id="TKMiJfSwWeMEldTkSYpw-60" value="&lt;b&gt;&lt;font style=&quot;font-size: 18px;&quot;&gt;Z&lt;sub&gt;p&lt;/sub&gt;&lt;/font&gt;&lt;/b&gt;" style="text;html=1;align=center;verticalAlign=middle;whiteSpace=wrap;rounded=0;" vertex="1" parent="1">
          <mxGeometry x="485" y="220" width="70" height="40" as="geometry" />
        </mxCell>
        <mxCell id="TKMiJfSwWeMEldTkSYpw-62" value="&lt;b&gt;&lt;font style=&quot;font-size: 18px;&quot;&gt;Z&lt;/font&gt;&lt;font style=&quot;font-size: 15px;&quot;&gt;&lt;sub&gt;a&lt;/sub&gt;&lt;/font&gt;&lt;/b&gt;" style="text;html=1;align=center;verticalAlign=middle;whiteSpace=wrap;rounded=0;" vertex="1" parent="1">
          <mxGeometry x="720" y="470" width="70" height="40" as="geometry" />
        </mxCell>
        <mxCell id="TKMiJfSwWeMEldTkSYpw-63" value="&lt;b&gt;&lt;font style=&quot;font-size: 18px;&quot;&gt;Z&lt;/font&gt;&lt;font style=&quot;font-size: 15px;&quot;&gt;&lt;sub&gt;d&lt;/sub&gt;&lt;/font&gt;&lt;/b&gt;" style="text;html=1;align=center;verticalAlign=middle;whiteSpace=wrap;rounded=0;" vertex="1" parent="1">
          <mxGeometry x="485" y="315" width="70" height="40" as="geometry" />
        </mxCell>
      </root>
    </mxGraphModel>
  </diagram>
</mxfile>
